<svg xmlns="http://www.w3.org/2000/svg" width="1200" height="360">
<rect x="0" y="0" width="1200" height="360" fill="white" />
<text x="40" y="20" font-size="16" font-family="monospace">Root XYZ Over Frames</text>
<line x1="40" y1="320" x2="1160" y2="320" stroke="#888" />
<line x1="40" y1="40" x2="40" y2="320" stroke="#888" />
<text x="40" y="352" font-size="12" font-family="monospace">0</text>
<text x="1080" y="352" font-size="12" font-family="monospace">frame</text>
<text x="46" y="52" font-size="12" font-family="monospace">y_max=0.37537</text>
<text x="46" y="316" font-size="12" font-family="monospace">y_min=-0.02365</text>
<polyline fill="none" stroke="#1f77b4" stroke-width="2" points="40.00,303.40 51.20,297.94 62.40,292.63 73.60,287.67 84.80,283.36 96.00,279.78 107.20,276.84 118.40,274.46 129.60,272.53 140.80,270.96 152.00,269.66 163.20,268.56 174.40,267.57 185.60,266.61 196.80,265.60 208.00,264.47 219.20,263.18 230.40,261.69 241.60,259.94 252.80,257.88 264.00,255.43 275.20,252.50 286.40,249.04 297.60,244.98 308.80,240.40 320.00,235.50 331.20,230.55 342.40,225.72 353.60,221.13 364.80,216.95 376.00,213.39 387.20,210.46 398.40,208.09 409.60,206.17 420.80,204.63 432.00,203.39 443.20,202.38 454.40,201.53 465.60,200.76 476.80,199.98 488.00,199.11 499.20,198.06 510.40,196.79 521.60,195.24 532.80,193.37 544.00,191.12 555.20,188.41 566.40,185.16 577.60,181.31 588.80,176.82 600.00,171.78 611.20,166.38 622.40,160.88 633.60,155.45 644.80,150.31 656.00,145.67 667.20,141.78 678.40,138.57 689.60,135.96 700.80,133.83 712.00,132.11 723.20,130.71 734.40,129.55 745.60,128.55 756.80,127.62 768.00,126.69 779.20,125.67 790.40,124.50 801.60,123.16 812.80,121.59 824.00,119.74 835.20,117.55 846.40,114.94 857.60,113.18 868.80,109.58 880.00,105.41 891.20,100.77 902.40,95.86 913.60,90.89 924.80,86.03 936.00,81.46 947.20,77.43 958.40,74.07 969.60,71.32 980.80,69.07 992.00,67.25 1003.20,65.78 1014.40,64.58 1025.60,63.58 1036.80,62.71 1048.00,61.87 1059.20,60.98 1070.40,59.95 1081.60,58.72 1092.80,57.59 1104.00,55.78 1115.20,53.62 1126.40,51.04 1137.60,47.95 1148.80,44.29 1160.00,40.00" />
<line x1="980" y1="18" x2="1000" y2="18" stroke="#1f77b4" stroke-width="2"/>
<text x="1005" y="22" font-size="12" font-family="monospace">root_x</text>
<polyline fill="none" stroke="#ff7f0e" stroke-width="2" points="40.00,303.40 51.20,305.36 62.40,307.58 73.60,309.76 84.80,311.68 96.00,313.31 107.20,314.70 118.40,315.86 129.60,316.90 140.80,317.76 152.00,318.50 163.20,319.10 174.40,319.56 185.60,319.86 196.80,320.00 208.00,319.99 219.20,319.83 230.40,319.53 241.60,319.07 252.80,318.44 264.00,317.60 275.20,316.55 286.40,315.24 297.60,313.66 308.80,311.68 320.00,309.22 331.20,306.29 342.40,303.03 353.60,299.67 364.80,296.53 376.00,293.82 387.20,291.51 398.40,289.54 409.60,287.87 420.80,286.49 432.00,285.36 443.20,284.44 454.40,283.74 465.60,283.21 476.80,282.84 488.00,282.60 499.20,282.48 510.40,282.44 521.60,282.51 532.80,282.65 544.00,282.91 555.20,283.26 566.40,283.72 577.60,284.31 588.80,285.05 600.00,286.05 611.20,287.39 622.40,289.05 633.60,290.93 644.80,292.85 656.00,294.58 667.20,296.06 678.40,297.33 689.60,298.39 700.80,299.27 712.00,299.99 723.20,300.54 734.40,300.93 745.60,301.17 756.80,301.24 768.00,301.14 779.20,300.89 790.40,300.45 801.60,299.84 812.80,299.03 824.00,298.00 835.20,296.72 846.40,295.16 857.60,284.39 868.80,281.60 880.00,278.58 891.20,275.58 902.40,272.85 913.60,270.49 924.80,268.55 936.00,266.94 947.20,265.60 958.40,264.48 969.60,263.57 980.80,262.87 992.00,262.32 1003.20,261.93 1014.40,261.69 1025.60,261.59 1036.80,261.60 1048.00,261.73 1059.20,261.95 1070.40,262.26 1081.60,262.64 1092.80,262.63 1104.00,262.92 1115.20,263.25 1126.40,263.65 1137.60,264.14 1148.80,264.75 1160.00,265.48" />
<line x1="980" y1="34" x2="1000" y2="34" stroke="#ff7f0e" stroke-width="2"/>
<text x="1005" y="38" font-size="12" font-family="monospace">root_y</text>
<polyline fill="none" stroke="#2ca02c" stroke-width="2" points="40.00,202.43 51.20,202.32 62.40,202.22 73.60,202.14 84.80,202.11 96.00,202.15 107.20,202.26 118.40,202.41 129.60,202.60 140.80,202.84 152.00,203.11 163.20,203.40 174.40,203.69 185.60,203.97 196.80,204.25 208.00,204.51 219.20,204.65 230.40,204.62 241.60,204.47 252.80,204.22 264.00,203.92 275.20,203.61 286.40,203.32 297.60,203.09 308.80,202.94 320.00,202.88 331.20,202.83 342.40,202.78 353.60,202.74 364.80,202.70 376.00,202.71 387.20,202.75 398.40,202.82 409.60,202.92 420.80,203.04 432.00,203.20 443.20,203.37 454.40,203.56 465.60,203.77 476.80,203.97 488.00,204.20 499.20,204.41 510.40,204.49 521.60,204.42 532.80,204.23 544.00,203.96 555.20,203.63 566.40,203.30 577.60,203.00 588.80,202.76 600.00,202.59 611.20,202.48 622.40,202.38 633.60,202.27 644.80,202.18 656.00,202.12 667.20,202.13 678.40,202.21 689.60,202.34 700.80,202.52 712.00,202.74 723.20,202.99 734.40,203.27 745.60,203.56 756.80,203.85 768.00,204.13 779.20,204.41 790.40,204.62 801.60,204.67 812.80,204.57 824.00,204.36 835.20,204.08 846.40,203.77 857.60,203.49 868.80,203.22 880.00,203.03 891.20,202.93 902.40,202.87 913.60,202.81 924.80,202.76 936.00,202.71 947.20,202.70 958.40,202.73 969.60,202.79 980.80,202.88 992.00,203.00 1003.20,203.14 1014.40,203.30 1025.60,203.49 1036.80,203.68 1048.00,203.87 1059.20,204.09 1070.40,204.33 1081.60,204.47 1092.80,204.48 1104.00,204.33 1115.20,204.08 1126.40,203.78 1137.60,203.44 1148.80,203.13 1160.00,202.85" />
<line x1="980" y1="50" x2="1000" y2="50" stroke="#2ca02c" stroke-width="2"/>
<text x="1005" y="54" font-size="12" font-family="monospace">root_z</text>
</svg>