<svg xmlns="http://www.w3.org/2000/svg" width="1200" height="360">
<rect x="0" y="0" width="1200" height="360" fill="white" />
<text x="40" y="20" font-size="16" font-family="monospace">Root Speed Over Frames</text>
<line x1="40" y1="320" x2="1160" y2="320" stroke="#888" />
<line x1="40" y1="40" x2="40" y2="320" stroke="#888" />
<text x="40" y="352" font-size="12" font-family="monospace">0</text>
<text x="1080" y="352" font-size="12" font-family="monospace">frame</text>
<text x="46" y="52" font-size="12" font-family="monospace">y_max=0.77803</text>
<text x="46" y="316" font-size="12" font-family="monospace">y_min=0.06178</text>
<polyline fill="none" stroke="#1f77b4" stroke-width="2" points="40.00,182.39 51.31,183.79 62.63,193.34 73.94,212.63 85.25,234.55 96.57,253.78 107.88,270.08 119.19,282.87 130.51,293.76 141.82,301.92 153.13,308.26 164.44,312.71 175.76,315.02 187.07,314.68 198.38,312.05 209.70,307.72 221.01,301.67 232.32,293.62 243.64,283.67 254.95,271.59 266.26,257.11 277.58,240.65 288.89,222.67 300.20,205.32 311.52,191.26 322.83,183.94 334.14,181.78 345.45,185.85 356.77,198.41 368.08,219.60 379.39,240.17 390.71,258.21 402.02,273.16 413.33,286.47 424.65,297.19 435.96,305.92 447.27,313.02 458.59,317.41 469.90,319.45 481.21,318.21 492.53,314.26 503.84,308.70 515.15,300.88 526.46,291.73 537.78,280.56 549.09,267.35 560.40,252.47 571.72,235.27 583.03,217.17 594.34,200.82 605.66,189.25 616.97,184.09 628.28,184.21 639.60,191.17 650.91,206.21 662.22,228.09 673.54,248.12 684.85,265.60 696.16,279.81 707.47,291.93 718.79,301.54 730.10,309.21 741.41,314.32 752.73,317.05 764.04,316.87 775.35,313.69 786.67,309.02 797.98,303.11 809.29,294.86 820.61,284.97 831.92,273.12 843.23,258.94 854.55,40.00 865.86,217.30 877.17,200.61 888.48,190.15 899.80,187.61 911.11,190.96 922.42,198.45 933.74,209.26 945.05,225.66 956.36,245.50 967.68,263.47 978.99,278.51 990.30,291.18 1001.62,301.54 1012.93,309.78 1024.24,315.78 1035.56,319.15 1046.87,320.00 1058.18,317.85 1069.49,313.49 1080.81,308.08 1092.12,312.49 1103.43,293.12 1114.75,282.87 1126.06,270.88 1137.37,256.59 1148.69,240.53 1160.00,222.54" />
<line x1="980" y1="18" x2="1000" y2="18" stroke="#1f77b4" stroke-width="2"/>
<text x="1005" y="22" font-size="12" font-family="monospace">root_speed</text>
</svg>