<svg xmlns="http://www.w3.org/2000/svg" width="1200" height="360">
<rect x="0" y="0" width="1200" height="360" fill="white" />
<text x="40" y="20" font-size="16" font-family="monospace">Boundary Joint Velocity Mismatch |v_end-v_start|</text>
<line x1="40" y1="320" x2="1160" y2="320" stroke="#888" />
<line x1="40" y1="40" x2="40" y2="320" stroke="#888" />
<text x="46" y="52" font-size="12" font-family="monospace">max=5.24905</text>
<rect x="40.00" y="283.42" width="61.22" height="36.58" fill="#1f77b4" />
<rect x="102.22" y="300.64" width="61.22" height="19.36" fill="#1f77b4" />
<rect x="164.44" y="278.60" width="61.22" height="41.40" fill="#1f77b4" />
<rect x="226.67" y="316.19" width="61.22" height="3.81" fill="#1f77b4" />
<rect x="288.89" y="198.05" width="61.22" height="121.95" fill="#1f77b4" />
<rect x="351.11" y="125.76" width="61.22" height="194.24" fill="#1f77b4" />
<rect x="413.33" y="301.99" width="61.22" height="18.01" fill="#1f77b4" />
<rect x="475.56" y="304.63" width="61.22" height="15.37" fill="#1f77b4" />
<rect x="537.78" y="231.93" width="61.22" height="88.07" fill="#1f77b4" />
<rect x="600.00" y="290.15" width="61.22" height="29.85" fill="#1f77b4" />
<rect x="662.22" y="40.00" width="61.22" height="280.00" fill="#1f77b4" />
<rect x="724.44" y="145.59" width="61.22" height="174.41" fill="#1f77b4" />
<rect x="786.67" y="313.88" width="61.22" height="6.12" fill="#1f77b4" />
<rect x="848.89" y="310.09" width="61.22" height="9.91" fill="#1f77b4" />
<rect x="911.11" y="314.79" width="61.22" height="5.21" fill="#1f77b4" />
<rect x="973.33" y="257.28" width="61.22" height="62.72" fill="#1f77b4" />
<rect x="1035.56" y="318.63" width="61.22" height="1.37" fill="#1f77b4" />
<rect x="1097.78" y="308.57" width="61.22" height="11.43" fill="#1f77b4" />
</svg>