<svg xmlns="http://www.w3.org/2000/svg" width="1200" height="360">
<rect x="0" y="0" width="1200" height="360" fill="white" />
<text x="40" y="20" font-size="16" font-family="monospace">Root Speed Over Frames</text>
<line x1="40" y1="320" x2="1160" y2="320" stroke="#888" />
<line x1="40" y1="40" x2="40" y2="320" stroke="#888" />
<text x="40" y="352" font-size="12" font-family="monospace">0</text>
<text x="1080" y="352" font-size="12" font-family="monospace">frame</text>
<text x="46" y="52" font-size="12" font-family="monospace">y_max=0.91727</text>
<text x="46" y="316" font-size="12" font-family="monospace">y_min=0.51350</text>
<polyline fill="none" stroke="#1f77b4" stroke-width="2" points="40.00,217.24 42.29,230.06 44.57,244.06 46.86,255.25 49.14,279.09 51.43,283.42 53.71,281.62 56.00,286.82 58.29,264.65 60.57,256.57 62.86,250.33 65.14,210.67 67.43,221.65 69.71,220.10 72.00,200.22 74.29,190.86 76.57,174.27 78.86,172.20 81.14,194.28 83.43,209.40 85.71,212.70 88.00,211.53 90.29,217.48 92.57,207.27 94.86,204.55 97.14,213.93 99.43,220.94 101.71,236.36 104.00,242.72 106.29,224.08 108.57,224.30 110.86,206.16 113.14,194.77 115.43,189.70 117.71,171.85 120.00,138.69 122.29,116.68 124.57,108.19 126.86,117.86 129.14,126.54 131.43,133.39 133.71,162.71 136.00,200.11 138.29,223.26 140.57,257.81 142.86,269.98 145.14,287.60 147.43,284.84 149.71,281.94 152.00,252.37 154.29,244.36 156.57,215.09 158.86,195.13 161.14,187.18 163.43,193.00 165.71,180.41 168.00,155.51 170.29,159.13 172.57,156.09 174.86,177.22 177.14,188.10 179.43,204.36 181.71,224.66 184.00,223.59 186.29,232.50 188.57,206.94 190.86,209.04 193.14,235.14 195.43,213.65 197.71,213.18 200.00,204.00 202.29,203.71 204.57,188.76 206.86,166.88 209.14,136.31 211.43,112.63 213.71,103.24 216.00,96.69 218.29,129.25 220.57,130.56 222.86,144.86 225.14,173.53 227.43,186.76 229.71,205.20 232.00,213.86 234.29,215.57 236.57,226.53 238.86,208.50 241.14,201.60 243.43,187.89 245.71,177.88 248.00,138.09 250.29,151.16 252.57,150.27 254.86,150.18 257.14,156.32 259.43,155.58 261.71,170.51 264.00,171.62 266.29,193.95 268.57,195.74 270.86,189.13 273.14,178.80 275.43,168.10 277.71,168.66 280.00,182.35 282.29,180.90 284.57,184.86 286.86,209.14 289.14,196.77 291.43,152.23 293.71,148.04 296.00,128.92 298.29,115.03 300.57,98.71 302.86,111.33 305.14,133.99 307.43,136.71 309.71,156.52 312.00,144.56 314.29,168.06 316.57,166.81 318.86,182.75 321.14,212.96 323.43,233.95 325.71,216.65 328.00,187.01 330.29,190.47 332.57,160.83 334.86,144.68 337.14,154.54 339.43,150.09 341.71,147.08 344.00,134.08 346.29,142.75 348.57,162.79 350.86,174.10 353.14,172.93 355.43,176.28 357.71,181.56 360.00,164.18 362.29,157.60 364.57,160.01 366.86,154.85 369.14,153.99 371.43,174.45 373.71,189.03 376.00,165.21 378.29,163.80 380.57,151.84 382.86,107.87 385.14,87.41 387.43,76.49 389.71,76.41 392.00,92.58 394.29,110.27 396.57,141.25 398.86,164.57 401.14,182.60 403.43,194.22 405.71,219.67 408.00,222.90 410.29,207.52 412.57,191.98 414.86,203.72 417.14,170.69 419.43,151.54 421.71,179.64 424.00,175.25 426.29,154.12 428.57,144.74 430.86,157.58 433.14,175.75 435.43,185.23 437.71,190.87 440.00,191.03 442.29,181.26 444.57,172.89 446.86,168.61 449.14,181.43 451.43,194.61 453.71,214.08 456.00,237.28 458.29,215.49 460.57,183.91 462.86,170.14 465.14,135.65 467.43,109.19 469.71,92.42 472.00,94.51 474.29,104.34 476.57,131.24 478.86,153.97 481.14,160.47 483.43,178.77 485.71,184.07 488.00,188.77 490.29,189.65 492.57,191.14 494.86,177.04 497.14,188.33 499.43,165.14 501.71,131.22 504.00,150.59 506.29,144.30 508.57,135.13 510.86,122.01 513.14,127.07 515.43,146.01 517.71,151.92 520.00,164.89 522.29,163.71 524.57,156.91 526.86,145.09 529.14,141.88 531.43,161.23 533.71,170.73 536.00,179.60 538.29,172.29 540.57,132.99 542.86,148.59 545.14,127.95 547.43,97.72 549.71,84.84 552.00,62.60 554.29,60.01 556.57,43.06 558.86,55.79 561.14,70.69 563.43,101.90 565.71,124.40 568.00,161.10 570.29,195.77 572.57,229.46 574.86,242.78 577.14,220.20 579.43,204.80 581.71,182.30 584.00,155.10 586.29,125.13 588.57,121.23 590.86,90.24 593.14,59.38 595.43,40.82 597.71,43.97 600.00,69.14 602.29,97.28 604.57,122.17 606.86,155.94 609.14,173.10 611.43,176.12 613.71,187.30 616.00,190.26 618.29,199.54 620.57,197.69 622.86,178.32 625.14,178.75 627.43,196.23 629.71,157.10 632.00,137.02 634.29,121.88 636.57,90.45 638.86,59.70 641.14,53.01 643.43,57.40 645.71,81.82 648.00,90.24 650.29,121.75 652.57,143.38 654.86,153.65 657.14,180.31 659.43,195.49 661.71,224.27 664.00,235.25 666.29,220.81 668.57,201.87 670.86,164.39 673.14,149.99 675.43,159.45 677.71,154.17 680.00,143.69 682.29,150.70 684.57,153.68 686.86,165.70 689.14,185.92 691.43,191.13 693.71,209.34 696.00,207.24 698.29,190.93 700.57,188.83 702.86,186.75 705.14,190.54 707.43,193.91 709.71,194.00 712.00,222.58 714.29,216.60 716.57,185.70 718.86,184.15 721.14,159.79 723.43,128.35 725.71,110.29 728.00,104.29 730.29,123.59 732.57,134.35 734.86,156.71 737.14,170.93 739.43,194.27 741.71,203.04 744.00,199.82 746.29,199.45 748.57,197.51 750.86,189.24 753.14,185.51 755.43,190.72 757.71,164.93 760.00,125.89 762.29,137.07 764.57,138.39 766.86,129.90 769.14,127.06 771.43,132.51 773.71,160.79 776.00,168.86 778.29,168.95 780.57,161.07 782.86,143.19 785.14,128.75 787.43,128.55 789.71,138.17 792.00,146.23 794.29,154.80 796.57,179.31 798.86,153.99 801.14,149.14 803.43,132.55 805.71,94.83 808.00,74.02 810.29,56.29 812.57,64.49 814.86,81.17 817.14,94.90 819.43,120.32 821.71,133.62 824.00,143.02 826.29,136.22 828.57,134.66 830.86,154.30 833.14,152.29 835.43,135.79 837.71,145.17 840.00,120.36 842.29,82.68 844.57,103.25 846.86,99.40 849.14,92.84 851.43,100.75 853.71,101.40 856.00,117.27 858.29,133.24 860.57,147.59 862.86,146.77 865.14,135.30 867.43,142.18 869.71,144.39 872.00,163.29 874.29,172.38 876.57,174.95 878.86,191.96 881.14,183.74 883.43,124.16 885.71,124.13 888.00,90.51 890.29,60.78 892.57,43.70 894.86,40.00 897.14,64.74 899.43,79.90 901.71,114.81 904.00,125.42 906.29,158.32 908.57,182.16 910.86,192.28 913.14,219.66 915.43,242.68 917.71,228.16 920.00,204.41 922.29,204.28 924.57,192.21 926.86,158.80 929.14,166.86 931.43,171.77 933.71,162.01 936.00,151.08 938.29,153.92 940.57,163.48 942.86,170.59 945.14,197.42 947.43,210.82 949.71,232.49 952.00,237.24 954.29,232.02 956.57,231.27 958.86,248.85 961.14,255.76 963.43,250.73 965.71,267.10 968.00,261.88 970.29,238.69 972.57,216.42 974.86,171.92 977.14,147.35 979.43,126.20 981.71,115.38 984.00,127.28 986.29,160.74 988.57,194.21 990.86,226.56 993.14,258.52 995.43,283.66 997.71,306.34 1000.00,299.72 1002.29,310.81 1004.57,320.00 1006.86,311.15 1009.14,295.63 1011.43,271.06 1013.71,243.96 1016.00,212.01 1018.29,210.45 1020.57,206.99 1022.86,193.81 1025.14,187.57 1027.43,184.80 1029.71,202.23 1032.00,202.04 1034.29,218.16 1036.57,229.20 1038.86,250.87 1041.14,267.11 1043.43,272.16 1045.71,264.05 1048.00,254.48 1050.29,241.43 1052.57,253.58 1054.86,243.84 1057.14,255.96 1059.43,255.45 1061.71,245.32 1064.00,220.67 1066.29,207.68 1068.57,170.06 1070.86,145.48 1073.14,126.03 1075.43,132.70 1077.71,136.90 1080.00,151.19 1082.29,175.97 1084.57,204.61 1086.86,218.50 1089.14,233.35 1091.43,245.42 1093.71,264.95 1096.00,270.23 1098.29,267.81 1100.57,250.76 1102.86,244.99 1105.14,228.58 1107.43,236.20 1109.71,206.37 1112.00,210.91 1114.29,210.76 1116.57,197.92 1118.86,199.72 1121.14,191.26 1123.43,199.22 1125.71,218.56 1128.00,230.89 1130.29,220.23 1132.57,223.20 1134.86,217.72 1137.14,210.49 1139.43,212.61 1141.71,217.20 1144.00,224.17 1146.29,232.22 1148.57,247.71 1150.86,274.31 1153.14,277.50 1155.43,259.56 1157.71,227.54 1160.00,180.07" />
<line x1="980" y1="18" x2="1000" y2="18" stroke="#1f77b4" stroke-width="2"/>
<text x="1005" y="22" font-size="12" font-family="monospace">root_speed</text>
</svg>