<svg xmlns="http://www.w3.org/2000/svg" width="1200" height="360">
<rect x="0" y="0" width="1200" height="360" fill="white" />
<text x="40" y="20" font-size="16" font-family="monospace">Root XYZ Over Frames</text>
<line x1="40" y1="320" x2="1160" y2="320" stroke="#888" />
<line x1="40" y1="40" x2="40" y2="320" stroke="#888" />
<text x="40" y="352" font-size="12" font-family="monospace">0</text>
<text x="1080" y="352" font-size="12" font-family="monospace">frame</text>
<text x="46" y="52" font-size="12" font-family="monospace">y_max=7.35331</text>
<text x="46" y="316" font-size="12" font-family="monospace">y_min=-0.34799</text>
<polyline fill="none" stroke="#1f77b4" stroke-width="2" points="40.00,307.35 42.28,306.84 44.56,306.36 46.84,305.88 49.12,305.42 51.41,304.98 53.69,304.55 55.97,304.12 58.25,303.70 60.53,303.25 62.81,302.80 65.09,302.33 67.37,301.82 69.65,301.32 71.93,300.83 74.22,300.30 76.50,299.77 78.78,299.22 81.06,298.66 83.34,298.13 85.62,297.62 87.90,297.11 90.18,296.60 92.46,296.10 94.75,295.58 97.03,295.06 99.31,294.56 101.59,294.06 103.87,293.58 106.15,293.10 108.43,292.60 110.71,292.11 112.99,291.59 115.27,291.07 117.56,290.53 119.84,289.98 122.12,289.39 124.40,288.78 126.68,288.16 128.96,287.54 131.24,286.94 133.52,286.34 135.80,285.77 138.09,285.25 140.37,284.76 142.65,284.30 144.93,283.86 147.21,283.44 149.49,283.01 151.77,282.58 154.05,282.12 156.33,281.64 158.62,281.14 160.90,280.61 163.18,280.08 165.46,279.55 167.74,279.01 170.02,278.44 172.30,277.88 174.58,277.32 176.86,276.78 179.14,276.25 181.43,275.73 183.71,275.24 185.99,274.76 188.27,274.28 190.55,273.77 192.83,273.26 195.11,272.78 197.39,272.28 199.67,271.78 201.96,271.26 204.24,270.75 206.52,270.22 208.80,269.67 211.08,269.07 213.36,268.46 215.64,267.83 217.92,267.20 220.20,266.59 222.48,265.99 224.77,265.41 227.05,264.86 229.33,264.32 231.61,263.81 233.89,263.30 236.17,262.80 238.45,262.32 240.73,261.81 243.01,261.29 245.30,260.76 247.58,260.21 249.86,259.62 252.14,259.05 254.42,258.47 256.70,257.90 258.98,257.33 261.26,256.76 263.54,256.20 265.82,255.65 268.11,255.12 270.39,254.59 272.67,254.06 274.95,253.52 277.23,252.96 279.51,252.41 281.79,251.87 284.07,251.33 286.35,250.79 288.64,250.28 290.92,249.75 293.20,249.18 295.48,248.61 297.76,248.01 300.04,247.40 302.32,246.77 304.60,246.15 306.88,245.56 309.16,244.97 311.45,244.40 313.73,243.82 316.01,243.28 318.29,242.73 320.57,242.20 322.85,241.70 325.13,241.23 327.41,240.73 329.69,240.20 331.98,239.68 334.26,239.12 336.54,238.55 338.82,237.99 341.10,237.42 343.38,236.84 345.66,236.25 347.94,235.67 350.22,235.10 352.51,234.55 354.79,234.00 357.07,233.45 359.35,232.91 361.63,232.35 363.91,231.79 366.19,231.23 368.47,230.66 370.75,230.09 373.03,229.54 375.32,229.01 377.60,228.45 379.88,227.90 382.16,227.33 384.44,226.71 386.72,226.07 389.00,225.42 391.28,224.77 393.56,224.15 395.85,223.54 398.13,222.97 400.41,222.43 402.69,221.91 404.97,221.40 407.25,220.92 409.53,220.45 411.81,219.95 414.09,219.44 416.37,218.93 418.66,218.40 420.94,217.84 423.22,217.30 425.50,216.76 427.78,216.20 430.06,215.62 432.34,215.05 434.62,214.50 436.90,213.96 439.19,213.43 441.47,212.90 443.75,212.36 446.03,211.81 448.31,211.26 450.59,210.72 452.87,210.20 455.15,209.70 457.43,209.21 459.71,208.71 462.00,208.18 464.28,207.62 466.56,207.04 468.84,206.42 471.12,205.79 473.40,205.16 475.68,204.54 477.96,203.96 480.24,203.39 482.53,202.84 484.81,202.31 487.09,201.79 489.37,201.26 491.65,200.74 493.93,200.22 496.21,199.68 498.49,199.15 500.77,198.60 503.05,198.01 505.34,197.44 507.62,196.86 509.90,196.27 512.18,195.66 514.46,195.06 516.74,194.48 519.02,193.90 521.30,193.34 523.58,192.78 525.87,192.21 528.15,191.62 530.43,191.04 532.71,190.47 534.99,189.92 537.27,189.38 539.55,188.82 541.83,188.23 544.11,187.65 546.40,187.04 548.68,186.41 550.96,185.76 553.24,185.08 555.52,184.41 557.80,183.71 560.08,183.03 562.36,182.36 564.64,181.73 566.92,181.13 569.21,180.57 571.49,180.06 573.77,179.58 576.05,179.11 578.33,178.62 580.61,178.12 582.89,177.58 585.17,177.01 587.45,176.41 589.74,175.81 592.02,175.16 594.30,174.49 596.58,173.80 598.86,173.10 601.14,172.44 603.42,171.80 605.70,171.19 607.98,170.62 610.26,170.07 612.55,169.53 614.83,168.99 617.11,168.47 619.39,167.95 621.67,167.44 623.95,166.90 626.23,166.35 628.51,165.83 630.79,165.26 633.08,164.68 635.36,164.08 637.64,163.44 639.92,162.77 642.20,162.09 644.48,161.42 646.76,160.77 649.04,160.13 651.32,159.53 653.60,158.96 655.89,158.41 658.17,157.89 660.45,157.39 662.73,156.93 665.01,156.47 667.29,156.00 669.57,155.49 671.85,154.94 674.13,154.38 676.42,153.83 678.70,153.26 680.98,152.68 683.26,152.11 685.54,151.54 687.82,150.98 690.10,150.44 692.38,149.91 694.66,149.39 696.95,148.88 699.23,148.35 701.51,147.82 703.79,147.28 706.07,146.75 708.35,146.23 710.63,145.70 712.91,145.20 715.19,144.70 717.47,144.17 719.76,143.63 722.04,143.06 724.32,142.46 726.60,141.85 728.88,141.22 731.16,140.62 733.44,140.03 735.72,139.46 738.00,138.91 740.29,138.39 742.57,137.88 744.85,137.37 747.13,136.85 749.41,136.33 751.69,135.80 753.97,135.27 756.25,134.74 758.53,134.18 760.81,133.59 763.10,133.01 765.38,132.42 767.66,131.83 769.94,131.23 772.22,130.64 774.50,130.07 776.78,129.52 779.06,128.96 781.34,128.40 783.63,127.81 785.91,127.22 788.19,126.62 790.47,126.03 792.75,125.45 795.03,124.88 797.31,124.33 799.59,123.76 801.87,123.18 804.15,122.59 806.44,121.95 808.72,121.29 811.00,120.62 813.28,119.95 815.56,119.31 817.84,118.67 820.12,118.07 822.40,117.49 824.68,116.91 826.97,116.33 829.25,115.74 831.53,115.18 833.81,114.61 836.09,114.03 838.37,113.45 840.65,112.85 842.93,112.21 845.21,111.59 847.49,110.96 849.78,110.32 852.06,109.69 854.34,109.07 856.62,108.45 858.90,107.86 861.18,107.28 863.46,106.70 865.74,106.11 868.02,105.53 870.31,104.95 872.59,104.39 874.87,103.84 877.15,103.30 879.43,102.76 881.71,102.22 883.99,101.62 886.27,101.02 888.55,100.38 890.84,99.72 893.12,99.03 895.40,98.33 897.68,97.66 899.96,97.01 902.24,96.39 904.52,95.79 906.80,95.23 909.08,94.70 911.36,94.18 913.65,93.69 915.93,93.23 918.21,92.75 920.49,92.23 922.77,91.72 925.05,91.19 927.33,90.63 929.61,90.07 931.89,89.52 934.18,88.96 936.46,88.39 938.74,87.82 941.02,87.27 943.30,86.72 945.58,86.21 947.86,85.71 950.14,85.24 952.42,84.77 954.70,84.29 956.99,83.81 959.27,83.35 961.55,82.89 963.83,82.43 966.11,81.99 968.39,81.54 970.67,81.06 972.95,80.56 975.23,80.01 977.52,79.44 979.80,78.84 982.08,78.22 984.36,77.62 986.64,77.05 988.92,76.52 991.20,76.03 993.48,75.57 995.76,75.15 998.04,74.75 1000.33,74.34 1002.61,73.95 1004.89,73.56 1007.17,73.17 1009.45,72.76 1011.73,72.31 1014.01,71.84 1016.29,71.33 1018.57,70.82 1020.86,70.31 1023.14,69.78 1025.42,69.25 1027.70,68.71 1029.98,68.19 1032.26,67.67 1034.54,67.17 1036.82,66.67 1039.10,66.21 1041.38,65.76 1043.67,65.32 1045.95,64.87 1048.23,64.41 1050.51,63.93 1052.79,63.47 1055.07,63.00 1057.35,62.53 1059.63,62.07 1061.91,61.60 1064.20,61.10 1066.48,60.59 1068.76,60.04 1071.04,59.45 1073.32,58.85 1075.60,58.25 1077.88,57.66 1080.16,57.08 1082.44,56.54 1084.73,56.02 1087.01,55.52 1089.29,55.04 1091.57,54.58 1093.85,54.14 1096.13,53.70 1098.41,53.27 1100.69,52.82 1102.97,52.36 1105.25,51.88 1107.54,51.40 1109.82,50.90 1112.10,50.41 1114.38,49.90 1116.66,49.38 1118.94,48.86 1121.22,48.33 1123.50,47.81 1125.78,47.30 1128.07,46.81 1130.35,46.31 1132.63,45.82 1134.91,45.31 1137.19,44.81 1139.47,44.30 1141.75,43.80 1144.03,43.31 1146.31,42.83 1148.59,42.36 1150.88,41.92 1153.16,41.48 1155.44,41.03 1157.72,40.54 1160.00,40.00" />
<line x1="980" y1="18" x2="1000" y2="18" stroke="#1f77b4" stroke-width="2"/>
<text x="1005" y="22" font-size="12" font-family="monospace">root_x</text>
<polyline fill="none" stroke="#ff7f0e" stroke-width="2" points="40.00,307.35 42.28,307.37 44.56,307.41 46.84,307.45 49.12,307.48 51.41,307.52 53.69,307.55 55.97,307.58 58.25,307.60 60.53,307.63 62.81,307.67 65.09,307.71 67.37,307.75 69.65,307.78 71.93,307.81 74.22,307.83 76.50,307.83 78.78,307.82 81.06,307.80 83.34,307.78 85.62,307.76 87.90,307.74 90.18,307.73 92.46,307.71 94.75,307.69 97.03,307.67 99.31,307.65 101.59,307.64 103.87,307.63 106.15,307.62 108.43,307.60 110.71,307.57 112.99,307.55 115.27,307.52 117.56,307.50 119.84,307.47 122.12,307.43 124.40,307.41 126.68,307.39 128.96,307.37 131.24,307.36 133.52,307.36 135.80,307.37 138.09,307.39 140.37,307.43 142.65,307.45 144.93,307.47 147.21,307.48 149.49,307.50 151.77,307.51 154.05,307.52 156.33,307.53 158.62,307.55 160.90,307.54 163.18,307.53 165.46,307.51 167.74,307.47 170.02,307.41 172.30,307.33 174.58,307.25 176.86,307.17 179.14,307.08 181.43,306.99 183.71,306.91 185.99,306.81 188.27,306.73 190.55,306.66 192.83,306.60 195.11,306.54 197.39,306.48 199.67,306.40 201.96,306.32 204.24,306.25 206.52,306.18 208.80,306.12 211.08,306.07 213.36,306.03 215.64,306.00 217.92,305.98 220.20,305.98 222.48,305.98 224.77,305.98 227.05,306.00 229.33,306.03 231.61,306.06 233.89,306.10 236.17,306.14 238.45,306.17 240.73,306.21 243.01,306.26 245.30,306.31 247.58,306.34 249.86,306.36 252.14,306.38 254.42,306.39 256.70,306.38 258.98,306.35 261.26,306.32 263.54,306.29 265.82,306.27 268.11,306.23 270.39,306.20 272.67,306.17 274.95,306.16 277.23,306.15 279.51,306.15 281.79,306.18 284.07,306.20 286.35,306.22 288.64,306.23 290.92,306.25 293.20,306.27 295.48,306.28 297.76,306.31 300.04,306.34 302.32,306.38 304.60,306.43 306.88,306.50 309.16,306.56 311.45,306.64 313.73,306.71 316.01,306.79 318.29,306.89 320.57,306.97 322.85,307.04 325.13,307.10 327.41,307.17 329.69,307.26 331.98,307.35 334.26,307.43 336.54,307.51 338.82,307.58 341.10,307.65 343.38,307.70 345.66,307.74 347.94,307.76 350.22,307.76 352.51,307.76 354.79,307.77 357.07,307.77 359.35,307.78 361.63,307.81 363.91,307.86 366.19,307.92 368.47,307.99 370.75,308.04 373.03,308.07 375.32,308.10 377.60,308.13 379.88,308.17 382.16,308.22 384.44,308.27 386.72,308.34 389.00,308.44 391.28,308.56 393.56,308.70 395.85,308.83 398.13,308.97 400.41,309.11 402.69,309.25 404.97,309.38 407.25,309.48 409.53,309.58 411.81,309.69 414.09,309.82 416.37,309.95 418.66,310.06 420.94,310.16 423.22,310.26 425.50,310.34 427.78,310.42 430.06,310.48 432.34,310.52 434.62,310.54 436.90,310.56 439.19,310.58 441.47,310.60 443.75,310.63 446.03,310.67 448.31,310.73 450.59,310.81 452.87,310.88 455.15,310.92 457.43,310.96 459.71,311.00 462.00,311.05 464.28,311.11 466.56,311.17 468.84,311.24 471.12,311.33 473.40,311.44 475.68,311.56 477.96,311.67 480.24,311.79 482.53,311.91 484.81,312.03 487.09,312.14 489.37,312.23 491.65,312.30 493.93,312.38 496.21,312.48 498.49,312.58 500.77,312.67 503.05,312.75 505.34,312.82 507.62,312.89 509.90,312.93 512.18,312.96 514.46,312.97 516.74,312.97 519.02,312.96 521.30,312.97 523.58,312.96 525.87,312.95 528.15,312.96 530.43,312.98 532.71,313.00 534.99,313.02 537.27,313.01 539.55,313.01 541.83,313.02 544.11,313.03 546.40,313.06 548.68,313.10 550.96,313.12 553.24,313.13 555.52,313.13 557.80,313.13 560.08,313.14 562.36,313.17 564.64,313.22 566.92,313.30 569.21,313.38 571.49,313.47 573.77,313.55 576.05,313.65 578.33,313.74 580.61,313.84 582.89,313.92 585.17,313.99 587.45,314.07 589.74,314.13 592.02,314.16 594.30,314.18 596.58,314.19 598.86,314.20 601.14,314.20 603.42,314.18 605.70,314.17 607.98,314.14 610.26,314.11 612.55,314.11 614.83,314.12 617.11,314.15 619.39,314.20 621.67,314.27 623.95,314.33 626.23,314.38 628.51,314.43 630.79,314.48 633.08,314.54 635.36,314.61 637.64,314.67 639.92,314.72 642.20,314.78 644.48,314.84 646.76,314.92 649.04,315.02 651.32,315.13 653.60,315.26 655.89,315.40 658.17,315.54 660.45,315.68 662.73,315.83 665.01,315.96 667.29,316.10 669.57,316.24 671.85,316.37 674.13,316.48 676.42,316.59 678.70,316.68 680.98,316.75 683.26,316.80 685.54,316.83 687.82,316.84 690.10,316.84 692.38,316.82 694.66,316.81 696.95,316.80 699.23,316.82 701.51,316.85 703.79,316.91 706.07,316.96 708.35,317.00 710.63,317.04 712.91,317.06 715.19,317.06 717.47,317.07 719.76,317.09 722.04,317.10 724.32,317.12 726.60,317.17 728.88,317.22 731.16,317.28 733.44,317.35 735.72,317.43 738.00,317.51 740.29,317.58 742.57,317.63 744.85,317.67 747.13,317.72 749.41,317.75 751.69,317.80 753.97,317.86 756.25,317.93 758.53,317.99 760.81,318.05 763.10,318.10 765.38,318.14 767.66,318.15 769.94,318.14 772.22,318.13 774.50,318.10 776.78,318.07 779.06,318.03 781.34,318.01 783.63,318.02 785.91,318.04 788.19,318.06 790.47,318.10 792.75,318.12 795.03,318.13 797.31,318.13 799.59,318.13 801.87,318.15 804.15,318.19 806.44,318.24 808.72,318.29 811.00,318.36 813.28,318.45 815.56,318.55 817.84,318.65 820.12,318.76 822.40,318.85 824.68,318.94 826.97,319.01 829.25,319.08 831.53,319.15 833.81,319.20 836.09,319.28 838.37,319.35 840.65,319.42 842.93,319.49 845.21,319.53 847.49,319.56 849.78,319.58 852.06,319.57 854.34,319.56 856.62,319.55 858.90,319.52 861.18,319.49 863.46,319.46 865.74,319.43 868.02,319.43 870.31,319.43 872.59,319.46 874.87,319.49 877.15,319.50 879.43,319.50 881.71,319.50 883.99,319.51 886.27,319.52 888.55,319.52 890.84,319.52 893.12,319.53 895.40,319.54 897.68,319.57 899.96,319.61 902.24,319.66 904.52,319.71 906.80,319.77 909.08,319.83 911.36,319.86 913.65,319.89 915.93,319.91 918.21,319.93 920.49,319.95 922.77,319.97 925.05,319.99 927.33,320.00 929.61,320.00 931.89,319.98 934.18,319.94 936.46,319.87 938.74,319.78 941.02,319.68 943.30,319.57 945.58,319.46 947.86,319.34 950.14,319.22 952.42,319.11 954.70,319.03 956.99,318.96 959.27,318.90 961.55,318.84 963.83,318.78 966.11,318.71 968.39,318.63 970.67,318.57 972.95,318.51 975.23,318.45 977.52,318.39 979.80,318.33 982.08,318.29 984.36,318.25 986.64,318.24 988.92,318.24 991.20,318.26 993.48,318.27 995.76,318.32 998.04,318.35 1000.33,318.40 1002.61,318.44 1004.89,318.49 1007.17,318.53 1009.45,318.58 1011.73,318.63 1014.01,318.67 1016.29,318.69 1018.57,318.71 1020.86,318.71 1023.14,318.70 1025.42,318.70 1027.70,318.68 1029.98,318.65 1032.26,318.62 1034.54,318.58 1036.82,318.56 1039.10,318.52 1041.38,318.47 1043.67,318.42 1045.95,318.37 1048.23,318.34 1050.51,318.30 1052.79,318.28 1055.07,318.27 1057.35,318.25 1059.63,318.22 1061.91,318.19 1064.20,318.19 1066.48,318.17 1068.76,318.15 1071.04,318.13 1073.32,318.13 1075.60,318.15 1077.88,318.18 1080.16,318.23 1082.44,318.28 1084.73,318.33 1087.01,318.40 1089.29,318.47 1091.57,318.55 1093.85,318.61 1096.13,318.68 1098.41,318.77 1100.69,318.87 1102.97,318.98 1105.25,319.10 1107.54,319.19 1109.82,319.28 1112.10,319.37 1114.38,319.45 1116.66,319.50 1118.94,319.53 1121.22,319.56 1123.50,319.57 1125.78,319.57 1128.07,319.57 1130.35,319.58 1132.63,319.59 1134.91,319.61 1137.19,319.65 1139.47,319.68 1141.75,319.72 1144.03,319.76 1146.31,319.80 1148.59,319.84 1150.88,319.86 1153.16,319.87 1155.44,319.90 1157.72,319.93 1160.00,319.96" />
<line x1="980" y1="34" x2="1000" y2="34" stroke="#ff7f0e" stroke-width="2"/>
<text x="1005" y="38" font-size="12" font-family="monospace">root_y</text>
<polyline fill="none" stroke="#2ca02c" stroke-width="2" points="40.00,296.48 42.28,296.51 44.56,296.54 46.84,296.54 49.12,296.53 51.41,296.51 53.69,296.47 55.97,296.42 58.25,296.35 60.53,296.29 62.81,296.22 65.09,296.20 67.37,296.24 69.65,296.26 71.93,296.30 74.22,296.33 76.50,296.34 78.78,296.35 81.06,296.40 83.34,296.43 85.62,296.43 87.90,296.42 90.18,296.40 92.46,296.38 94.75,296.34 97.03,296.30 99.31,296.27 101.59,296.23 103.87,296.18 106.15,296.14 108.43,296.11 110.71,296.10 112.99,296.13 115.27,296.18 117.56,296.23 119.84,296.27 122.12,296.31 124.40,296.37 126.68,296.42 128.96,296.44 131.24,296.45 133.52,296.43 135.80,296.41 138.09,296.37 140.37,296.32 142.65,296.27 144.93,296.21 147.21,296.14 149.49,296.06 151.77,296.01 154.05,295.96 156.33,295.93 158.62,295.96 160.90,296.03 163.18,296.11 165.46,296.16 167.74,296.21 170.02,296.27 172.30,296.34 174.58,296.39 176.86,296.42 179.14,296.42 181.43,296.42 183.71,296.40 185.99,296.36 188.27,296.32 190.55,296.27 192.83,296.21 195.11,296.15 197.39,296.10 199.67,296.07 201.96,296.09 204.24,296.13 206.52,296.18 208.80,296.23 211.08,296.27 213.36,296.32 215.64,296.38 217.92,296.45 220.20,296.47 222.48,296.47 224.77,296.45 227.05,296.43 229.33,296.38 231.61,296.31 233.89,296.24 236.17,296.18 238.45,296.10 240.73,296.03 243.01,295.95 245.30,295.94 247.58,295.99 249.86,296.06 252.14,296.12 254.42,296.18 256.70,296.24 258.98,296.28 261.26,296.33 263.54,296.37 265.82,296.38 268.11,296.36 270.39,296.31 272.67,296.26 274.95,296.20 277.23,296.12 279.51,296.04 281.79,295.99 284.07,295.94 286.35,295.89 288.64,295.90 290.92,295.96 293.20,296.05 295.48,296.12 297.76,296.18 300.04,296.25 302.32,296.34 304.60,296.41 306.88,296.43 309.16,296.43 311.45,296.39 313.73,296.35 316.01,296.27 318.29,296.19 320.57,296.11 322.85,296.02 325.13,295.92 327.41,295.84 329.69,295.80 331.98,295.82 334.26,295.90 336.54,296.01 338.82,296.10 341.10,296.18 343.38,296.24 345.66,296.32 347.94,296.38 350.22,296.42 352.51,296.41 354.79,296.38 357.07,296.33 359.35,296.27 361.63,296.19 363.91,296.11 366.19,296.05 368.47,295.99 370.75,295.93 373.03,295.92 375.32,295.98 377.60,296.07 379.88,296.15 382.16,296.22 384.44,296.30 386.72,296.39 389.00,296.46 391.28,296.51 393.56,296.52 395.85,296.50 398.13,296.45 400.41,296.38 402.69,296.30 404.97,296.20 407.25,296.09 409.53,295.98 411.81,295.89 414.09,295.84 416.37,295.86 418.66,295.95 420.94,296.06 423.22,296.13 425.50,296.18 427.78,296.24 430.06,296.31 432.34,296.37 434.62,296.40 436.90,296.40 439.19,296.37 441.47,296.32 443.75,296.25 446.03,296.19 448.31,296.13 450.59,296.07 452.87,296.01 455.15,295.96 457.43,295.96 459.71,296.00 462.00,296.07 464.28,296.13 466.56,296.19 468.84,296.26 471.12,296.34 473.40,296.41 475.68,296.46 477.96,296.47 480.24,296.46 482.53,296.42 484.81,296.35 487.09,296.27 489.37,296.19 491.65,296.11 493.93,296.03 496.21,295.97 498.49,295.96 500.77,296.01 503.05,296.11 505.34,296.18 507.62,296.22 509.90,296.27 512.18,296.32 514.46,296.39 516.74,296.42 519.02,296.45 521.30,296.45 523.58,296.43 525.87,296.39 528.15,296.35 530.43,296.30 532.71,296.25 534.99,296.19 537.27,296.15 539.55,296.19 541.83,296.24 544.11,296.25 546.40,296.25 548.68,296.26 550.96,296.29 553.24,296.34 555.52,296.38 557.80,296.42 560.08,296.43 562.36,296.42 564.64,296.38 566.92,296.33 569.21,296.28 571.49,296.22 573.77,296.16 576.05,296.09 578.33,296.03 580.61,295.99 582.89,295.99 585.17,296.04 587.45,296.09 589.74,296.14 592.02,296.20 594.30,296.27 596.58,296.36 598.86,296.45 601.14,296.51 603.42,296.54 605.70,296.54 607.98,296.50 610.26,296.45 612.55,296.39 614.83,296.31 617.11,296.21 619.39,296.12 621.67,296.04 623.95,295.97 626.23,295.94 628.51,295.96 630.79,296.02 633.08,296.09 635.36,296.17 637.64,296.26 639.92,296.36 642.20,296.46 644.48,296.53 646.76,296.55 649.04,296.54 651.32,296.50 653.60,296.44 655.89,296.36 658.17,296.27 660.45,296.17 662.73,296.06 665.01,295.97 667.29,295.91 669.57,295.90 671.85,295.94 674.13,296.02 676.42,296.09 678.70,296.15 680.98,296.21 683.26,296.26 685.54,296.32 687.82,296.37 690.10,296.38 692.38,296.36 694.66,296.31 696.95,296.26 699.23,296.20 701.51,296.15 703.79,296.09 706.07,296.04 708.35,295.99 710.63,295.96 712.91,296.00 715.19,296.07 717.47,296.15 719.76,296.21 722.04,296.26 724.32,296.33 726.60,296.40 728.88,296.47 731.16,296.50 733.44,296.50 735.72,296.49 738.00,296.45 740.29,296.38 742.57,296.29 744.85,296.20 747.13,296.11 749.41,296.03 751.69,295.96 753.97,295.93 756.25,295.96 758.53,296.04 760.81,296.16 763.10,296.26 765.38,296.34 767.66,296.42 769.94,296.51 772.22,296.59 774.50,296.64 776.78,296.66 779.06,296.62 781.34,296.56 783.63,296.50 785.91,296.42 788.19,296.35 790.47,296.29 792.75,296.22 795.03,296.18 797.31,296.19 799.59,296.25 801.87,296.30 804.15,296.35 806.44,296.39 808.72,296.45 811.00,296.52 813.28,296.58 815.56,296.62 817.84,296.64 820.12,296.61 822.40,296.54 824.68,296.46 826.97,296.37 829.25,296.27 831.53,296.18 833.81,296.08 836.09,296.01 838.37,296.01 840.65,296.10 842.93,296.23 845.21,296.33 847.49,296.41 849.78,296.49 852.06,296.55 854.34,296.63 856.62,296.67 858.90,296.65 861.18,296.60 863.46,296.53 865.74,296.45 868.02,296.38 870.31,296.28 872.59,296.19 874.87,296.11 877.15,296.05 879.43,296.05 881.71,296.10 883.99,296.19 886.27,296.29 888.55,296.38 890.84,296.49 893.12,296.60 895.40,296.68 897.68,296.73 899.96,296.74 902.24,296.71 904.52,296.64 906.80,296.55 909.08,296.45 911.36,296.34 913.65,296.22 915.93,296.11 918.21,296.00 920.49,295.93 922.77,295.94 925.05,296.01 927.33,296.10 929.61,296.17 931.89,296.23 934.18,296.29 936.46,296.35 938.74,296.41 941.02,296.46 943.30,296.48 945.58,296.46 947.86,296.42 950.14,296.37 952.42,296.32 954.70,296.28 956.99,296.21 959.27,296.14 961.55,296.09 963.83,296.05 966.11,296.04 968.39,296.06 970.67,296.12 972.95,296.17 975.23,296.21 977.52,296.25 979.80,296.30 982.08,296.37 984.36,296.41 986.64,296.42 988.92,296.41 991.20,296.38 993.48,296.34 995.76,296.29 998.04,296.23 1000.33,296.16 1002.61,296.09 1004.89,296.01 1007.17,295.95 1009.45,295.90 1011.73,295.87 1014.01,295.88 1016.29,295.93 1018.57,296.00 1020.86,296.06 1023.14,296.11 1025.42,296.16 1027.70,296.21 1029.98,296.24 1032.26,296.27 1034.54,296.29 1036.82,296.30 1039.10,296.29 1041.38,296.26 1043.67,296.23 1045.95,296.19 1048.23,296.15 1050.51,296.10 1052.79,296.07 1055.07,296.04 1057.35,296.02 1059.63,296.00 1061.91,296.03 1064.20,296.10 1066.48,296.15 1068.76,296.18 1071.04,296.22 1073.32,296.27 1075.60,296.32 1077.88,296.34 1080.16,296.33 1082.44,296.32 1084.73,296.29 1087.01,296.26 1089.29,296.20 1091.57,296.13 1093.85,296.06 1096.13,295.98 1098.41,295.90 1100.69,295.85 1102.97,295.82 1105.25,295.82 1107.54,295.87 1109.82,295.97 1112.10,296.05 1114.38,296.09 1116.66,296.14 1118.94,296.19 1121.22,296.25 1123.50,296.30 1125.78,296.33 1128.07,296.33 1130.35,296.32 1132.63,296.28 1134.91,296.23 1137.19,296.17 1139.47,296.11 1141.75,296.03 1144.03,295.97 1146.31,295.91 1148.59,295.88 1150.88,295.87 1153.16,295.92 1155.44,295.98 1157.72,296.05 1160.00,296.14" />
<line x1="980" y1="50" x2="1000" y2="50" stroke="#2ca02c" stroke-width="2"/>
<text x="1005" y="54" font-size="12" font-family="monospace">root_z</text>
</svg>